<svg aria-hidden="true" style="position:absolute;width:0;height:0" xmlns="http://www.w3.org/2000/svg" overflow="hidden"><defs><symbol id="icon-icon" viewBox="0 0 35 32"><path d="M33.592 3.89a1.998 1.998 0 00-1.565-.763H11.739a1.99 1.99 0 00-1.891 2.617l-.004-.014 3.733 11.676c.167.503.632.859 1.181.86h15.185a1.245 1.245 0 001.204-.941l.002-.009 2.813-11.729a1.984 1.984 0 00-.374-1.702l.003.004zm-.48 16.583H13.517a1.59 1.59 0 01-1.508-1.088l-.003-.011L6.615 2.648A3.806 3.806 0 002.998.008H1.813a1.818 1.818 0 000 3.636h1.179c.077.001.142.05.168.118v.001l5.392 16.726c.696 2.118 2.656 3.62 4.966 3.62h19.596a1.817 1.817 0 10-.001-3.636h-.001zm-18.301 5.73a2.895 2.895 0 102.896 2.895v-.001a2.894 2.894 0 00-2.894-2.894h-.002zm15.207 0a2.895 2.895 0 102.896 2.895v-.001a2.894 2.894 0 00-2.894-2.894h-.002z"/></symbol><symbol id="icon-icon1" viewBox="0 0 36 32"><path d="M19.91 10.779a7.854 7.854 0 00.589-2.614l.001-.02a8.363 8.363 0 00-1.74-5.61l.014.019a7.154 7.154 0 00-2.178-1.91l-.035-.018a4.683 4.683 0 00-2.256-.618h-.004a2.331 2.331 0 00-.709.119l.017-.005c-.151.047-.232.074-.232.074s.02.081.05.235c.032.141.036.39.059.618l.001.188a14.2 14.2 0 01-.097 1.659l.006-.066a11.295 11.295 0 00.413 4.421l-.021-.08c.256.837.58 1.562.979 2.238l-.026-.048c.415.714.864 1.332 1.368 1.9l-.011-.012c.44.484 1.433 1.62 1.794 1.902.093-.569.16-1.246.185-1.933l.001-.029c.038-.47.007-.934 0-1.398s-.091-.907-.13-1.344c-.078-.43-.184-.84-.269-1.236q-.209-.564-.388-1.068a82.046 82.046 0 01-.459-.847 3.44 3.44 0 00-.435-.601l.003.003c-.259-.329-.407-.511-.407-.511s.162.168.442.477c.177.172.336.361.474.565l.008.013c.157.249.336.524.529.827l.477 1.062c.117.396.255.813.368 1.25.073.444.193.9.236 1.371s.11.954.107 1.438c.021.544.012 1.089-.013 1.62.048-.043.091-.087.133-.133l.001-.002a7.13 7.13 0 001.135-1.848l.018-.047zm-4.293 3.998c.072.121.134.228.202.349a10.197 10.197 0 00-7.691 6.655l-.021.071.24.027c.567.037 1.091.114 1.602.228l-.069-.013c.016-.245.104-.467.243-.648l-.002.003a2.911 2.911 0 012.424-1.162h-.005a16.243 16.243 0 014.849.564l-.114-.027c.33.103.71.163 1.104.163.546 0 1.065-.114 1.535-.32l-.025.01c2.554-1.021 4.795-.927 6.607.255.224.148.457.302.693.464-1.32-3.301-4.227-5.714-7.751-6.315l-.06-.008c.097-.168.191-.343.299-.517.129-.198.224-.431.271-.68l.002-.012a1.357 1.357 0 01-.011-.175v-.014.001c-.364.457-.691.921-.979 1.357-.177-.02-.36-.027-.538-.04.093-.685.17-1.418.206-2.184-.054.063-.111.12-.171.173l-.002.002a2.502 2.502 0 00-.334.92l-.002.014c-.063.356-.134.699-.206 1.035-.063 0-.122-.013-.184-.013a10.54 10.54 0 00-1.59.122l.058-.007c-.255-.376-.53-.766-.841-1.156v.011c0 .06-.004.119-.012.177l.001-.007c.047.264.143.499.278.706l-.004-.007zm5.893-2.795c.261-.249.556-.45.818-.665.282-.195.569-.363.831-.531q.429-.192.802-.363c.261-.081.502-.148.714-.208.166-.05.358-.084.556-.094h.006l.492-.054s-.177.034-.487.087a2.621 2.621 0 00-.563.14l.018-.006c-.202.074-.434.161-.684.249l-.751.417c-.247.181-.511.363-.769.571-.243.228-.511.444-.745.706a9.66 9.66 0 00-.682.773l-.015.02c-.292.355-.58.749-.844 1.16l-.03.049c.349.013 1.478-.134 1.97-.195a8.284 8.284 0 001.773-.414l-.058.018a7.84 7.84 0 001.665-.792l-.032.019a8.583 8.583 0 002.371-2.252l.018-.026c.274-.395.548-.739.842-1.064l-.008.009c.126-.121.252-.262.342-.329s.145-.101.145-.101-.032-.06-.093-.168a1.764 1.764 0 00-.338-.402l-.002-.002a3.53 3.53 0 00-1.573-.769l-.023-.004a5.376 5.376 0 00-2.253 0l.035-.006a6.373 6.373 0 00-4.73 4.075l-.014.044a5.304 5.304 0 00-.286 1.656v.004c0 .047.006.094.009.141.252-.316.517-.625.801-.934.233-.269.513-.511.771-.759zM6.571 9.757c.285.316.558.66.81 1.021l.023.034a8.655 8.655 0 002.355 2.258l.034.02a7.606 7.606 0 001.579.756l.055.017a7.829 7.829 0 001.673.392l.04.004c.495.06 1.624.208 1.971.195a11.94 11.94 0 00-.89-1.237l.017.021c-.212-.282-.462-.531-.695-.793s-.504-.47-.745-.699c-.259-.208-.525-.39-.77-.571l-.751-.417c-.251-.094-.48-.175-.683-.255a2.9 2.9 0 00-.53-.126l-.016-.002c-.31-.054-.485-.087-.485-.087l.491.054c.205.011.397.042.582.092l-.02-.005c.212.06.451.134.713.208.249.114.517.242.802.37.263.168.549.336.832.531.263.215.558.417.818.665s.538.484.775.759c.284.302.549.618.801.934 0-.047.011-.094.009-.148a5.333 5.333 0 00-.297-1.691l.011.037a5.967 5.967 0 00-.985-1.799l.009.012a6.37 6.37 0 00-3.727-2.325l-.041-.007a5.39 5.39 0 00-2.253.006l.035-.006a3.624 3.624 0 00-1.602.784l.005-.004a1.74 1.74 0 00-.336.396l-.004.007c-.06.108-.093.161-.093.161s.05.04.144.108.215.208.341.329zm24.82 16.86a21.646 21.646 0 00-5.663-5.047l-.093-.053c-1.747-1.136-3.737-.894-5.59-.148a4.9 4.9 0 01-1.919.385c-.51 0-1.003-.077-1.466-.22l.035.009a14.939 14.939 0 00-4.431-.49l.027-.001a1.83 1.83 0 00-1.542.715l-.003.004c-.212.282 1.523 1.445 3.011 1.445-.276.551-5.085-.618-5.726-.571l-3.637-.464c-1.293-.108-1.291-.591-2.563.121a.306.306 0 01-.13.028l-.03-.001h.001a1.61 1.61 0 00-1.497.647l-.003.005a.86.86 0 00-.086.919l-.002-.005c.157.213.406.35.688.35l.032-.001H.802a23.577 23.577 0 004.186 1.469l.171.036c1.569.39 3.098.86 4.665 1.216a6.801 6.801 0 011.931.602l-.041-.018a7.074 7.074 0 004.004.845l-.025.002c1.609-.074 3.222-.007 4.838-.02a6.889 6.889 0 016.417 3.579l.018.036 9.104-.02c-1.988-2.325-2.865-2.89-4.679-5.356z"/></symbol><symbol id="icon-icon2" viewBox="0 0 32 32"><path d="M24.334 22.327c.386.024.773.054 1.154.066-1.948 2.898-5.121 4.843-8.76 5.091l-.035.002c.181-.349.361-.71.533-1.071.99-.123 1.89-.37 2.731-.729l-.066.025a.158.158 0 00.023-.047v-.001a.726.726 0 01.129-.224l-.001.001-.051-.126.111-.157c.062-.102.13-.191.205-.272l-.001.001c.079-.06.74-.632.884-.74.125-.096.673-.512.913-.704.032-.024.06-.054.081-.066a4.73 4.73 0 00.557-.681l.011-.017c.073-.133.145-.292.205-.456l.008-.025c.457.054.915.096 1.367.132zm-11.204.776c-.043-.006.013.024.049.042a.06.06 0 00-.049-.042zm8.601-.807c.114.012.265 0 .377 0h.034a.805.805 0 00.381-.146l-.002.002.013-.006-.421-.054a9.914 9.914 0 00-.421-.06c.068.024.12.08.138.149v.002c-.082.03-.224.096-.099.114zm-8.548.849v.006c.04.018.027.006-.002-.006zm3.563-8.517a.098.098 0 01.017.018c.007-.018-.019-.018-.019-.018zm3.805 2.51h-.024l-.022.09c-.101.373-.202.746-.309 1.12.087 0 .167.006.167.006a.243.243 0 00.12-.161v-.002c.025-.099.057-.185.099-.266l-.003.007s.025.006.067.012a.434.434 0 00.06-.204v-.001a1.746 1.746 0 00-.079-.313l.004.012c.008-.121.021-.23.039-.338l-.003.019zm-.502 1.709l-.051.169.078-.012.048.126a.494.494 0 00.029-.069l.001-.004a.756.756 0 00-.028-.168l.001.005a.118.118 0 00-.081-.048h-.001zm.986-3.624l-.024-.012c-.055.229-.107.457-.165.68a.19.19 0 00.172.036h-.001c.066.008.143.012.221.012h.021-.001c.17 0 .197.024.227-.048s.039.036.039-.15v-.016a.385.385 0 00-.148-.303l-.001-.001a1.435 1.435 0 00-.331-.195l-.009-.004zm10.831 5.057c-.508 1.902-6.031 2.131-13.038.728-2.294 6.784-5.251 11.467-7.146 10.956-1.195-.319-1.726-2.643-1.606-6.074.041.024.082.048.12.066-3.241-1.903-5.443-5.27-5.699-9.17l-.002-.034c.333.175.671.343 1.015.512a45.633 45.633 0 003.821 1.607h-.005l.004.066-.188.337-.174.108.047.078.031.157H8.95v.349a.315.315 0 00.252.174h.001l-.079.048a.718.718 0 00.097.207l-.002-.003c.068.101.127.216.171.339l.003.011c.032.108.079.421.079.421s.206.349.301.494c.123.146.242.307.35.475l.011.018c.079.157.252.078.583.157.178.034.337.099.477.19l-.005-.003c.084.07.177.139.274.203l.012.007a1.04 1.04 0 00.525.06l-.006.001c.162.002.316.029.461.075l-.011-.003.057.006a.785.785 0 01.489.217l.016.006c.098.042.15.066.181.078.018.081.028.175.028.27.016.078.127-.018.206-.018a.302.302 0 01.142.09.461.461 0 00.074.035l.003.001c.141.048.173-.048.173-.048l.159.193.126.169-.126.307-.11.108a1.046 1.046 0 00-.001-.264l.001.005c-.017-.108-.11.054-.11.054l-.095.301.346.331.105.096.226.205.015.042.129.373-.017.126.079.205a1.08 1.08 0 01-.182.059l-.008.002a.28.28 0 01-.094.018.263.263 0 00-.147.107l-.001.001c-.03.037-.06.078-.086.122l-.003.005c.029.056.059.103.091.148l-.002-.003a.533.533 0 00.115.126l.001.001c.022.018.042.024.06.042a.172.172 0 01.052.012h-.001a.174.174 0 00-.011.018l-.047.078c-.137.241-.309.53-.508.843a11.678 11.678 0 01-3.371-1.228l.06.03c0 .006.004.006.006.006.031 2.071.418 3.419 1.175 3.618 1.434.385 3.761-3.443 5.681-9.047a53.352 53.352 0 01-2.46-.608C6.071 17.715-.571 13.977.03 11.732c.321-1.198 2.633-1.734 6.057-1.613l-.114.205c2.008-3.501 5.723-5.821 9.981-5.821h.055-.211c1.608-3.034 3.226-4.774 4.42-4.454 2.241.602 2.149 8.235-.206 17.047a62.19 62.19 0 01-.701 2.444c5.8 1.132 10.268 1.029 10.659-.409.202-.758-.766-1.764-2.542-2.829v-.012a11.53 11.53 0 01-.651 3.554l.025-.081c-.367.018-.704.024-.976.024a9.12 9.12 0 01-.5-.012 44.948 44.948 0 01-.898-.042c.037-.106.075-.242.104-.38l.004-.024c.02-.094.043-.174.073-.252l-.004.011-.353-.084-.041-.229-.149-.03-.137.265a.613.613 0 01-.513.307h-.001l.039-.187a.376.376 0 00-.205.025l.002-.001-.015-.175a.434.434 0 00-.147-.192l-.001-.001a.515.515 0 01-.179-.161l-.001-.002a.687.687 0 01-.079-.158l-.002-.005a.034.034 0 00-.012-.012l.02-.096s.128-.138.234-.265.142.126.252.217a.245.245 0 01.072.236v-.002a.384.384 0 00.161.036h.004a.14.14 0 01.122.072v.001l.181.066.181-.199a.174.174 0 01.161-.126c.126 0 .02.163.02.259s.09 0 .34-.108a2.25 2.25 0 00.383-.227l-.006.004a.34.34 0 00.196-.155l.001-.002c.06-.047.113-.094.163-.144l.197.126.218-.036.217-.126v.163a.3.3 0 00-.054.309l-.001-.002c.091.126.107.09.055.253a.287.287 0 000 .254l-.001-.002c.01.034.017.073.019.113v.001c.291-.919.459-1.975.459-3.07 0-3.403-1.619-6.429-4.128-8.348l-.025-.019c.032-.403.056-.801.073-1.198 3.094 2.097 5.1 5.595 5.1 9.563v.015-.001-.163c3.019 1.613 4.758 3.232 4.438 4.43zM18.114 7.771s.114-.066.17-.09 0-.03-.056-.072a.112.112 0 00-.038-.006.118.118 0 00-.091.042.346.346 0 00-.063.1l-.001.002c0 .006-.006.012-.008.018-.031.036-.065-.06-.072-.114a.28.28 0 00-.212-.018l.002-.001a.493.493 0 01.047.098l.001.004s.017.102.017.138l-.001.024c0 .05.012.098.034.14l-.001-.002a.885.885 0 00.119.125l.001.001.065-.042.023-.018.098-.163.081-.072zm-1.291-.716s.013-.114.076-.102a.24.24 0 00.126-.149v-.002a.19.19 0 00-.112-.102h-.001c-.064 0-.202.018-.202.018l-.039-.078a.375.375 0 00-.18.025l.003-.001a.093.093 0 01-.044.011.09.09 0 01-.084-.059v-.001l-.013-.157-.14.042-.101-.09s-.037-.078.025-.078c.055.001.107.006.158.013l-.007-.001.127-.09-.051-.096.088-.102a.233.233 0 00-.217-.024l.002-.001a.471.471 0 01-.177.113l-.003.001v-.004a.183.183 0 00-.06-.135c-.075-.102.037-.157-.128-.114a.53.53 0 00-.224.103l.001-.001a.29.29 0 00-.056.048.288.288 0 00-.187.102c.055.057.13.093.214.096h.001a.164.164 0 01.029-.03c.033-.036.094-.09.137-.042a.889.889 0 01.11.135l.002.003-.241.126-.009-.006-.12-.096h-.241l-.114.054-.228.024c.018.051.032.11.038.171v.003a.226.226 0 01-.1.132l-.001.001-.135-.012-.017-.006-.14.102a.53.53 0 00-.218.062l.003-.001a.044.044 0 01-.032.018c-.06.018-.12-.024-.12.06 0 .102.012.151-.06.169a.244.244 0 00-.062.013h.002c-.081.018-.181.036-.181.036a.537.537 0 00-.14.102.628.628 0 01-.198.101l-.004.001-.02-.006-.232-.048-.329.138-.009.024-.067.157-.216.024a.465.465 0 00-.189.155l-.001.001a.145.145 0 01-.07.078h-.001a.238.238 0 01-.054.035l-.002.001a.59.59 0 00-.328.245l-.001.002-.052.114.09.132-.203.024.024.096c.101.102.166.156.228.102a.313.313 0 01.099-.114l.001-.001c.045-.018.125-.042.195-.066.051-.018.096-.036.12-.048a.838.838 0 01.235-.113l.006-.002c.054-.001.106-.005.158-.013l-.006.001.03-.024.173-.138.203.09.166-.024a.11.11 0 00.03.072.092.092 0 00.047.024h.001a.744.744 0 00.188.024.216.216 0 01.151-.084h.227l.026-.114.143.066.02.006.114.09s-.051.012.076.066a.303.303 0 00.196.006l-.002.001a.447.447 0 00.049-.025l-.002.001.216.054a.247.247 0 00-.051-.205.633.633 0 01-.193-.062l.004.002.139-.054.152-.024.039.169.241-.078-.038-.138.013-.217.228.036.014.151a.293.293 0 00.092.03h.002c.054.018.109.018.109-.03 0-.09-.051-.151.013-.151.071-.007.136-.019.198-.038l-.007.002.06-.09.09-.205.1.151.14-.09-.026-.126.301-.138s.181-.024.256-.024a.145.145 0 00.099-.024h-.001s.051-.102-.025-.102a.225.225 0 01-.128-.06zm-3.027 4.918l-.126.06.292.138.143.006.107.006a.706.706 0 00.09-.249l.001-.004v-.007c0-.038.017-.072.043-.095.026-.018.065-.036.12-.072a.12.12 0 00.052-.181.17.17 0 00-.174-.042h.001-.002c-.01 0-.02.002-.029.006l-.21.102-.019.012-.101-.132-.14.042-.139.138h.01c.029 0 .056.004.082.013l-.002-.001a.38.38 0 01.142.001h-.002c.101.018-.025.102-.025.102l-.202.054zm.482-2.974l-.173.012H14.1a.69.69 0 00.005.294l-.001-.005c0 .006.005.012.007.018.046.088.131.15.232.162h.001a.475.475 0 00.176-.012l-.003.001c.113-.024.147-.03.153-.03l-.017.006a.034.034 0 00.015-.006l.078-.03.099-.042a.344.344 0 00.162-.184l.001-.002c0-.09-.14-.06-.253-.06h-.008c-.104-.006-.095-.018-.143-.144s-.051.078-.051.078a.199.199 0 01-.1-.125v-.001a.808.808 0 01-.063-.2l-.001-.005-.045.024-.143.078.037.072zm-.128 3.642l.128.169c.032.042.053.03.067 0a.146.146 0 01.069-.102h.001c.06 0 .014.102.09.09.069-.008.149-.012.231-.012h.015l.109.126a.324.324 0 00.139-.125l.001-.001c.013-.066.013-.066.114-.066s.063-.012.19-.114-.039-.187-.14-.241-.014-.138-.014-.138l.014-.181a1.144 1.144 0 00-.015-.157l.001.006c-.013-.09-.038-.15-.051-.241a.078.078 0 00-.101-.066h.001v-.114h.017c.084 0 .165-.009.244-.026l-.008.001c.06-.024 0-.15 0-.15s-.15-.06-.265-.102-.039-.06.152-.072.025-.102.025-.102l-.152-.09a.492.492 0 01-.2.149l-.003.001a.2.2 0 00-.06.036.94.94 0 00-.053.15l-.001.007v.102l.055.09.034.06a.792.792 0 01-.035.113l.002-.005a.323.323 0 01-.043.085l.001-.001a.15.15 0 00.025.163v.005c0 .09-.009.177-.026.262l.001-.008c-.025.084-.217-.078-.217-.078l-.037.217h-.176l.025.114.043.03.07.06.075.114-.144-.054-.069-.024zm-1.986-5.725l-.216.229c.071.015.152.024.236.024h.019-.001a1.22 1.22 0 00.248-.153l-.003.002c.077-.054.154-.102.211-.138a.234.234 0 01.191-.067h-.001l.051.102-.305.181.356-.054.042-.036.137-.126.14-.169.215.012.081-.03.184-.066a.845.845 0 00.216-.214l.002-.003c.049-.09.082-.042.143-.024a.094.094 0 00.061 0h-.001c.1-.024.051-.114.051-.205 0-.042.06-.048.132-.048a.416.416 0 00.201-.019l-.003.001c.075-.054-.06-.151-.165-.181l-.033-.006h-.008a.125.125 0 01-.124-.108v-.001a.089.089 0 00-.109-.054h.001a.277.277 0 00-.145.043l.001-.001c-.075.054-.227.066-.181-.036a.193.193 0 01.027-.03 9.336 9.336 0 00-1.24.339l.065-.02c.088-.006.126 0 .181 0 .076 0-.076.09-.076.09a1.491 1.491 0 00-.299.136l.007-.004-.007.006a.137.137 0 00-.03.133V6.42h.03c.058-.001.113-.006.167-.013l-.008.001c.106-.037.198-.086.28-.147l-.003.002a.797.797 0 01.101-.053l.004-.002a.697.697 0 00.113-.05l-.004.002c.088-.048.024.144.024.144l.241-.09.195-.012h.073l.076-.144-.147-.03-.081-.018.076-.078h.046c.1 0 .198.007.294.02l-.011-.001c.077.006 0 .096 0 .096l-.024.102-.088.163c-.06.01-.13.016-.201.018h-.011a.37.37 0 00-.181.096l-.178.126h-.255l-.039.144-.203-.024a.982.982 0 01-.037-.151l-.001-.005c-.014-.09-.101 0-.101 0a.46.46 0 01-.12.217.099.099 0 01-.056.024.5.5 0 00-.229.156l-.001.001zm2.759-1.342a5.854 5.854 0 00-.325.03.185.185 0 00.059.018h.001c.075.012.013.036.013.096 0 .042.019.06.081.072.032.006.075.012.137.018.178.024.06-.048.037-.199a.136.136 0 01-.005-.036zm-.683.145a.306.306 0 00.024-.058l.001-.002c-.019 0-.036.006-.055.006a.104.104 0 01.028.054v.001zm1.451-.199a.184.184 0 00-.02.103v-.001c.013.114.038 0 .114-.024a.086.086 0 00.065-.078h-.16zM8.268 8.885l.16.012.202-.126.203.06-.114.054a1.522 1.522 0 00-.135.231l-.004.009a.433.433 0 00.303.06H8.88c.039-.099.07-.215.088-.335l.001-.008a.406.406 0 01.263-.162h.002l.075-.205.128.09a.458.458 0 00.06-.203v-.001a.406.406 0 00-.241-.078l.226-.108.228.06-.051.445h.228l.051.078a2.119 2.119 0 01-.365.17l-.015.005a.588.588 0 00-.202.167l-.001.001-.126.138c.037.05.089.086.149.102h.002c.049.001.09.037.099.084v.001a.209.209 0 00.14-.125L9.62 9.3v-.007a.102.102 0 00-.051-.089s.113-.132.19-.217.482-.271.557-.355a.113.113 0 00.042-.089.118.118 0 00-.018-.062l.19-.12s.051-.241.076-.301c.141-.116.299-.225.464-.322l.017-.009a.988.988 0 01.462-.216l.006-.001c.255-.06.077-.09.06-.163s-.215.096-.215.096l-.301-.09a.46.46 0 00.254-.097l-.001.001a.3.3 0 01.188-.066h.001c.09-.036.063-.072.063-.072h.14c.065-.065.125-.136.177-.212l.003-.005c.06-.102.203-.295.203-.295s-.316.181-.38.205l-.035.001a.873.873 0 01-.212-.026l.006.001a2.485 2.485 0 00-.326.18l.009-.006a3.198 3.198 0 00-.266.132l-.188-.042-.152.066-.367.151a2.2 2.2 0 01.205-.133l.011-.006.301-.181.241-.06.02-.126c-.097.054-.193.102-.291.157a10.805 10.805 0 00-2.432 1.955l-.006.007zM17.8 19.22a58.86 58.86 0 00.731-2.522c2.052-7.669 2.287-14.272.533-14.742-.757-.205-1.76.764-2.821 2.546h-.034c1.258.031 2.452.26 3.567.657l-.08-.025c.021.367.023.704.022.975 0 .223-.004.403-.008.506-.034.963-.12 1.95-.249 2.944a.628.628 0 00-.145-.036h-.003a.497.497 0 00-.141 0h.003a.931.931 0 01-.154-.16l-.002-.002a.485.485 0 00-.28-.18l-.003-.001c-.158-.054-.146.06-.146.06a.54.54 0 01-.338.084h.002-.003a.228.228 0 00-.226.197v.001l-.136.114a.255.255 0 01-.156.126h-.004a.445.445 0 00-.147.025l.003-.001c-.02.07-.035.152-.041.236v.005a.098.098 0 01-.084.096h-.001c-.069.012-.13.029-.188.05l.007-.002c-.073.03-.146.078-.22.114-.056.06-.118.113-.185.16l-.004.003a2.536 2.536 0 00-.199.114l-.199.042.104.102-.157.03a.486.486 0 00.01.172l-.001-.003a.235.235 0 00.181.084 1.122 1.122 0 01-.225.136l-.007.003c-.126.054-.126.072-.116.126.05.12.159.207.291.223h.002c.212.054.063-.012.157-.066.056-.032.122-.06.191-.082l.008-.002a.97.97 0 01.127.3l.001.007c0 .09-.032.271-.02.337s.114-.024.114-.024l-.094.108s.02.187.02.241.187.018.187-.03a.267.267 0 01.262-.15h-.001c.157-.006.137-.03.137-.156.003-.107.014-.208.033-.307l-.002.012.181-.048s.102-.078.17-.144a.255.255 0 00.04-.047l.001-.001c.022-.03-.004-.066-.041-.096s-.072-.054-.097-.078a.584.584 0 01-.074-.288l.001-.039v.002l-.001-.034c0-.037.005-.073.014-.107l-.001.003a.166.166 0 01.147-.091H18.027a.023.023 0 00.016-.006c.073-.018.167-.144.301-.211s-.073-.072-.073-.072l.042-.211c.02-.097.293.03.293.03l.105.126-.126.096-.144.217-.209.277.168.439a.53.53 0 00.24.06.524.524 0 00.263-.115l-.001.001c.089-.042.192-.073.3-.09l.006-.001-.049.295a1.54 1.54 0 01-.23-.026l.009.002c-.14.026-.259.058-.376.096l.02-.006c-.149.018-.06.12-.06.193.048.078.12.137.206.168l.003.001-.163.102a.254.254 0 00-.221-.15h-.001a.508.508 0 00-.18.279l-.001.003a.33.33 0 00.06.302v-.001a.621.621 0 00-.208.068l.003-.002-.034.018c-.103.072-.133.018-.133.018a.206.206 0 00-.132-.09h-.001a1.344 1.344 0 00-.259.147l.004-.003a1.177 1.177 0 01-.332 0l.006.001-.164-.175-.136.132a.42.42 0 01-.193-.12c-.071-.09 0-.072-.015-.144s-.044-.078-.044-.078l.074-.114.193-.12a.647.647 0 00-.047-.389l.002.004c-.09-.12-.09.12-.09.12l-.297.193.016.397-.06.181-.116-.03-.074.09a1.67 1.67 0 00-.179-.086l-.013-.005a.489.489 0 00-.328.15l-.027.066-.048.108-.163-.03-.089.108h-.181c-.076 0-.03.132-.03.132a.332.332 0 01-.107.083l-.002.001-.026-.036a.164.164 0 00-.162.042.341.341 0 01-.093.041l-.003.001-.079.012-.076-.193s-.054-.102-.107-.024a.15.15 0 00-.033.133v-.001l.022.132-.108.012-.021-.012-.054-.012-.187-.114-.028-.018s-.129-.018-.106.066.129.193.129.247a.036.036 0 00.007.018.365.365 0 01.189.091.306.306 0 01-.099.168.22.22 0 01.076.162 1.16 1.16 0 01-.047.309l.002-.008c-.021.06-.075.042-.097.108a.324.324 0 01-.026.049l.001-.001a.717.717 0 01-.082.115l.001-.001a.528.528 0 01-.22.018h.003a1.159 1.159 0 00-.189-.118l-.006-.003a.076.076 0 00-.054 0h.001a.127.127 0 01-.14-.042 1.21 1.21 0 00-.252-.148l-.008-.003a.257.257 0 01-.129-.107l-.001-.001s-.017-.012-.04-.024a.427.427 0 00-.131-.048h-.003a.302.302 0 00-.14.096v.001a.482.482 0 01-.001.196l.001-.003a.258.258 0 01-.044.205l.001-.001c-.064.048-.076.012-.087.102s.043.042-.043.126a1.395 1.395 0 01-.099.121l.001-.001a.04.04 0 00-.021.012.336.336 0 00-.173.131l-.001.001a.479.479 0 00-.075.258c.065.131.144.244.237.344l-.001-.001.034.012a.116.116 0 01.098.09v.001c0 .078-.089.108 0 .163.035.03.066.062.095.095l.001.001c.099.035.217.064.339.083l.011.001c.177.036.353.066.353.066l.12-.084h.205l.054-.187.163-.006.011-.175s-.021-.175.032-.175a.833.833 0 00.184-.092l-.003.002c.075-.048.144-.096.144-.096s.041.006.097.018a.468.468 0 00.231-.006l-.003.001c.063-.065.12-.136.171-.211l.003-.005a.441.441 0 010-.201l-.001.003a.043.043 0 01.039-.03l.044-.001c.115 0 .223.03.317.081l-.003-.002a.533.533 0 00.289.138h.003a.677.677 0 00.212-.115l-.001.001.027-.018c.023-.018.088-.06.158-.114.001.003.002.005.005.006.078.01.145.048.194.102a.478.478 0 01.043.304v-.003a.455.455 0 00.192.228l.002.001c.054.06.315.409.4.518s.259.301.259.301l.087.205-.181.132a2.141 2.141 0 01-.274-.032l.013.002a.12.12 0 00-.12.042.865.865 0 01-.141-.109h.001c-.098-.084-.031.012-.151.078s.151.163.218.217c.069.063.132.13.189.201l.003.003c.043.054.152-.018.152-.108 0-.058.004-.114.012-.169l-.001.007h.193l.12-.138.099-.084.043-.12-.076-.217a.876.876 0 01.175-.047l.005-.001a.28.28 0 01.109.161v.002l.056.024v-.009a.494.494 0 00-.034-.181l.001.003a1.256 1.256 0 00-.201-.178l-.004-.003a1.923 1.923 0 01-.261-.125l.009.005a2.501 2.501 0 01-.241-.372l-.007-.014a.275.275 0 01-.032-.188v.002a1.841 1.841 0 00-.163-.193.353.353 0 01-.032-.148l.002-.04v.002l.205-.126a.177.177 0 00.06-.048.536.536 0 01.155.249l.001.004c.008.1.031.192.067.277l-.002-.006a.479.479 0 00.323.15h.001c.174.03.12.15.12.15.078.091.14.2.179.318l.002.007c.02.132.02.193.032.355.03.128.078.24.142.341l-.003-.004c.055.151.075.151.108.271.015.054.025.108.045.163-.107.397-.22.801-.34 1.204a1.155 1.155 0 00-.172.426l-.001.007a.194.194 0 01-.079.03h-.001l-.225-.054a2.86 2.86 0 00-.494-.252l-.02-.007a2.805 2.805 0 01-.245-.382l-.008-.016a.163.163 0 00-.19-.047h.001a1.04 1.04 0 01-.384-.141l.005.003c-.034-.042-.09-.108-.135-.157s-.071-.084-.071-.084a.768.768 0 01.069-.059l.002-.001a.448.448 0 01.147-.095l.003-.001c.079-.018-.031-.175-.127-.331s.253-.211.237-.289a.456.456 0 00-.258-.12h-.002l-.008-.006a.643.643 0 00-.319.001l.005-.001-.301-.06s-.095.03-.173.06a.13.13 0 01-.103-.012h.001a.363.363 0 01-.18-.178l-.001-.002a.221.221 0 00-.223-.072h.002a.302.302 0 01-.127-.037l.002.001a.233.233 0 00-.115-.036h-.001c-.07.006-.134.042-.216.054-.103.012-.241.048-.331.06-.019 0-.035.006-.049.006a.667.667 0 00-.286.128l.002-.001c-.111.06-.141-.175-.141-.175a.536.536 0 01-.1-.013l.004.001a1.62 1.62 0 01-.295-.088l.011.004c-.237-.096-.127-.241-.127-.241l-.133.114a1.047 1.047 0 01-.099.089l-.002.002a.41.41 0 01-.346.193h-.002l-.024-.001a.483.483 0 00-.293.098l.001-.001a1.736 1.736 0 00-.304.424l-.005.01a37.455 37.455 0 01-5.629-2.399l.206.099a15.736 15.736 0 00-.337-.187 20.98 20.98 0 01-.934-.566 11.546 11.546 0 011.238-3.418l-.03.059c-.009.018-.017.03-.022.042-2.068.03-3.409.421-3.612 1.18-.47 1.758 5.351 4.852 13.002 6.91q1.307.334 2.554.614zm-2.325-3.238a.173.173 0 00-.052.139v-.001a.209.209 0 00.094.06h.001a.377.377 0 00.134-.006h-.002c.025-.006.06-.018.091-.024.104-.03.042-.084.06-.156a.967.967 0 01.062-.253l-.002.007c.042-.072-.085-.126-.085-.126s-.098.138-.134.193l-.004.006a.495.495 0 01-.164.161l-.002.001zm.174-.572a.285.285 0 00.208-.108v-.001c.03-.084.02-.042.053-.138s-.085.03-.085.03l-.138.084-.037.084-.025.054a.086.086 0 00.023-.006h-.001z"/></symbol><symbol id="icon-icon3" viewBox="0 0 32 32"><path d="M31.43 8.881a.71.71 0 00.286-1.27l-.002-.001c-.859-.627-1.962-1.242-2.789-1.058l1.715-4.269a.71.71 0 00-.928-.921l.005-.002-4.271 1.715c.184-.828-.433-1.928-1.058-2.785a.71.71 0 00-1.269.279l-.001.004a23.083 23.083 0 01-1.617 4.808l.06-.143c.484.312.904.653 1.284 1.034l2.882 2.88a7.74 7.74 0 011.021 1.254l.018.03a22.112 22.112 0 014.512-1.526l.154-.029zm-6.664 1.236l-2.881-2.885A6.326 6.326 0 0017.4 5.376a6.343 6.343 0 00-5.518 3.209l-.016.031-3.165 5.623 3.434 5.659L7.2 16.906.239 29.287a1.822 1.822 0 001.57 2.714h.001c.331-.004.639-.093.907-.247l-.009.005 5.411-3.039-1.816-3.37 3.988 2.152 11.12-6.25-3.052-5.327 6.078 3.483a6.344 6.344 0 002.188-4.798c0-1.753-.71-3.341-1.858-4.491z"/></symbol></defs></svg>